<?xml version="1.0" encoding="utf-8"?>
<!-- Generator: Adobe Illustrator 20.0.0, SVG Export Plug-In . SVG Version: 6.00 Build 0)  -->
<svg version="1.1" id="Layer_1" xmlns="http://www.w3.org/2000/svg" xmlns:xlink="http://www.w3.org/1999/xlink" x="0px" y="0px"
	 viewBox="0 0 214.66 432.25" style="enable-background:new 0 0 214.66 432.25;" xml:space="preserve">
<style type="text/css">
	.st0{fill:#2B2A29;}
	.st1{fill:#1A1A18;}
</style>
<g>
	<ellipse class="st0" cx="76.67" cy="336.44" rx="8.05" ry="8.15"/>
	<ellipse class="st0" cx="137.98" cy="336.44" rx="8.05" ry="8.15"/>
	<path class="st0" d="M150.72,292.49c-11.59-11.75-27-18.22-43.39-18.22c-16.39,0-31.8,6.47-43.39,18.22
		c-11.59,11.74-17.97,27.35-17.97,43.95c0,16.6,6.38,32.21,17.97,43.95c11.59,11.75,27,18.22,43.39,18.22
		c16.39,0,31.8-6.47,43.39-18.22c11.59-11.74,17.97-27.35,17.97-43.95C168.69,319.84,162.3,304.23,150.72,292.49z M55.06,344.89
		h-6.2c-0.39-2.78-0.58-5.62-0.58-8.45c0-2.79,0.19-5.6,0.57-8.34h6.21c0.06,0,0.11-0.05,0.11-0.11v-19.63
		c2.75-5.25,6.26-10.04,10.41-14.25c11.15-11.3,25.98-17.52,41.75-17.52c15.77,0,30.6,6.22,41.75,17.52
		c4.16,4.21,7.66,9.01,10.41,14.25v19.63c0,0.06,0.05,0.11,0.11,0.11h6.21c0.38,2.74,0.57,5.55,0.57,8.34c0,2.82-0.2,5.67-0.58,8.45
		h-6.2c-0.06,0-0.11,0.05-0.11,0.11v19.53c-2.75,5.24-6.25,10.04-10.41,14.25c-11.15,11.3-25.98,17.52-41.75,17.52
		c-15.77,0-30.6-6.22-41.75-17.52c-4.16-4.21-7.66-9.01-10.41-14.25v-19.53C55.17,344.94,55.12,344.89,55.06,344.89z"/>
</g>
<g>
	<path class="st1" d="M176.62,411.4H38.04c-3.63,0-6.58-2.9-6.58-6.47v-64.37c-0.14-1.82-0.21-3.73-0.21-5.61
		c0-41.14,34.13-74.6,76.08-74.6s76.08,33.47,76.08,74.6c0,1.87-0.07,3.77-0.22,5.65l0,64.32C183.2,408.5,180.25,411.4,176.62,411.4
		z M107.33,261.77c-41.17,0-74.67,32.83-74.67,73.18c0,1.84,0.07,3.71,0.21,5.55l0,64.42c0,2.78,2.32,5.05,5.17,5.05h138.57
		c2.85,0,5.17-2.27,5.17-5.05v-64.38c0.14-1.9,0.21-3.77,0.21-5.6C181.99,294.6,148.5,261.77,107.33,261.77z"/>
</g>
<g>
	<path d="M199,0H15.66C7.02,0,0,7.02,0,15.66V416.6c0,8.63,7.02,15.66,15.66,15.66H199c8.63,0,15.66-7.02,15.66-15.66V15.66
		C214.66,7.02,207.63,0,199,0z M15.66,2.83H199c7.07,0,12.82,5.75,12.82,12.82v100.36c-58.18-6.6-150.81-6.6-208.99,0V15.66
		C2.83,8.59,8.59,2.83,15.66,2.83z M199,429.42H15.66c-7.07,0-12.82-5.75-12.82-12.82V117.44c58.14-6.61,150.85-6.61,208.99,0V416.6
		C211.82,423.67,206.07,429.42,199,429.42z"/>
	<circle cx="107.33" cy="171.71" r="3.01"/>
	<path d="M120.88,173.16c0.05,3.85-1.68,7.36-4.76,9.64c-0.31,0.23-0.38,0.68-0.15,0.99c0.14,0.19,0.35,0.29,0.57,0.29
		c0.15,0,0.29-0.05,0.42-0.14c3.44-2.55,5.38-6.49,5.33-10.8c-0.06-4.44-2.22-8.49-5.93-11.1c-0.32-0.22-0.76-0.15-0.99,0.17
		c-0.22,0.32-0.15,0.76,0.17,0.99C118.88,165.54,120.83,169.17,120.88,173.16z"/>
	<path d="M112.93,164.69c-0.31-0.24-0.76-0.17-0.99,0.14c-0.23,0.31-0.17,0.76,0.14,0.99c2.18,1.63,3.41,4.08,3.36,6.74
		c-0.04,2.56-1.26,4.87-3.35,6.33c-0.32,0.22-0.4,0.67-0.17,0.99c0.14,0.2,0.36,0.3,0.58,0.3c0.14,0,0.28-0.04,0.41-0.13
		c2.47-1.72,3.91-4.44,3.96-7.47C116.91,169.47,115.48,166.59,112.93,164.69z"/>
	<path d="M120.42,159.45c-0.29-0.27-0.74-0.25-1,0.04c-0.27,0.29-0.25,0.74,0.04,1c4.89,4.52,7.27,9.84,6.9,15.38
		c-0.42,6.28-4.39,12.49-10.9,17.05c-0.32,0.22-0.4,0.67-0.17,0.99c0.14,0.2,0.36,0.3,0.58,0.3c0.14,0,0.28-0.04,0.41-0.13
		c6.85-4.81,11.04-11.41,11.5-18.12C128.17,169.99,125.63,164.27,120.42,159.45z"/>
	<path d="M97.7,183.94c0.13,0.09,0.27,0.14,0.42,0.14c0.22,0,0.43-0.1,0.57-0.29c0.23-0.31,0.17-0.76-0.15-0.99
		c-3.07-2.28-4.81-5.8-4.76-9.64c0.05-3.98,2-7.61,5.33-9.95c0.32-0.23,0.4-0.67,0.17-0.99c-0.23-0.32-0.67-0.4-0.99-0.17
		c-3.71,2.61-5.88,6.65-5.93,11.1C92.31,177.45,94.26,181.38,97.7,183.94z"/>
	<path d="M99.23,172.56c-0.04-2.66,1.19-5.11,3.36-6.74c0.31-0.23,0.38-0.68,0.14-0.99c-0.23-0.31-0.68-0.38-0.99-0.14
		c-2.55,1.9-3.98,4.78-3.93,7.9c0.05,3.02,1.49,5.75,3.96,7.47c0.12,0.09,0.27,0.13,0.41,0.13c0.22,0,0.44-0.11,0.58-0.3
		c0.22-0.32,0.15-0.76-0.18-0.99C100.49,177.43,99.27,175.12,99.23,172.56z"/>
	<path d="M88.31,175.87c-0.37-5.54,2.01-10.86,6.9-15.38c0.29-0.27,0.3-0.71,0.04-1c-0.27-0.29-0.71-0.31-1-0.04
		c-5.21,4.82-7.75,10.53-7.35,16.51c0.45,6.71,4.64,13.31,11.5,18.12c0.12,0.09,0.27,0.13,0.41,0.13c0.22,0,0.44-0.1,0.58-0.3
		c0.22-0.32,0.15-0.76-0.17-0.99C92.71,188.36,88.74,182.15,88.31,175.87z"/>
</g>
</svg>
