<?xml version="1.0" standalone="no"?>
<!DOCTYPE svg PUBLIC "-//W3C//DTD SVG 20010904//EN"
 "http://www.w3.org/TR/2001/REC-SVG-20010904/DTD/svg10.dtd">
<svg version="1.0" xmlns="http://www.w3.org/2000/svg"
 width="300.000000pt" height="300.000000pt" viewBox="0 0 300.000000 300.000000"
 preserveAspectRatio="xMidYMid meet">
<metadata>
Created by potrace 1.14, written by Peter Selinger 2001-2017
</metadata>
<g transform="translate(0.000000,300.000000) scale(0.100000,-0.100000)"
fill="#000000" stroke="none">
<path d="M514 2980 c-249 -65 -432 -250 -495 -500 -19 -73 -19 -115 -17 -1006
l3 -929 29 -84 c71 -202 223 -354 428 -429 l73 -27 935 -3 c1052 -3 1012 -5
1163 71 63 32 102 62 167 127 98 98 147 182 179 304 21 78 21 101 21 995 0
1023 3 974 -72 1128 -68 140 -194 258 -345 321 -124 52 -110 52 -1088 51 -855
0 -914 -1 -981 -19z m2009 -37 c111 -42 181 -87 258 -164 63 -62 85 -93 122
-170 25 -52 50 -118 56 -147 7 -36 11 -349 11 -965 0 -1019 4 -963 -71 -1116
-61 -124 -162 -223 -289 -284 -52 -25 -119 -50 -148 -56 -36 -7 -349 -11 -965
-11 -1019 0 -963 -4 -1117 72 -163 80 -298 253 -335 433 -12 58 -15 221 -15
971 0 866 1 904 20 978 57 224 238 407 462 466 70 18 111 19 1013 17 l940 -2
58 -22z"/>
<path d="M1465 2442 c-73 -45 -185 -191 -185 -242 0 -27 5 -26 53 13 137 109
220 110 354 1 49 -40 53 -41 53 -11 0 66 -173 257 -232 257 -7 0 -26 -8 -43
-18z"/>
<path d="M1149 2160 c-57 -14 -182 -75 -211 -103 -19 -17 -28 -36 -28 -56 0
-35 63 -162 110 -222 29 -35 76 -66 86 -56 2 2 -8 34 -21 73 -32 91 -33 169
-2 215 21 32 129 121 159 131 40 15 -42 30 -93 18z"/>
<path d="M1780 2159 c-12 -9 -12 -12 -2 -16 32 -13 138 -101 159 -132 35 -52
30 -142 -14 -244 -19 -44 -15 -51 20 -38 52 20 167 209 167 274 0 22 -8 41
-22 54 -47 43 -216 113 -272 113 -12 0 -28 -5 -36 -11z"/>
<path d="M1099 1658 c-7 -12 -11 -63 -11 -119 1 -149 27 -222 82 -234 59 -13
255 38 298 78 34 31 27 40 -26 32 -26 -3 -79 -1 -116 6 -92 16 -126 46 -166
149 -16 44 -30 86 -30 95 0 22 -17 18 -31 -7z"/>
<path d="M1876 1618 c-45 -162 -94 -201 -253 -202 -51 0 -93 -3 -93 -7 0 -9
31 -34 60 -49 44 -23 163 -50 223 -50 72 0 91 17 108 97 25 115 13 273 -21
273 -4 0 -15 -28 -24 -62z"/>
<path d="M1524 1116 c-46 -20 -64 -52 -64 -113 0 -51 0 -52 -32 -55 -28 -3
-32 -7 -32 -33 0 -26 4 -30 32 -33 l32 -3 0 -140 0 -139 40 0 40 0 0 140 0
140 45 0 c45 0 45 0 45 35 0 35 0 35 -45 35 l-45 0 0 44 c0 52 16 68 59 60 30
-6 31 -5 31 29 0 31 -3 35 -31 41 -40 8 -38 8 -75 -8z"/>
<path d="M1090 860 l0 -260 40 0 39 0 3 85 3 85 64 -85 65 -85 48 0 c26 0 48
2 48 4 0 2 -34 46 -75 97 -41 52 -75 96 -75 99 0 3 27 35 60 72 33 36 60 69
60 72 0 3 -23 6 -50 6 -49 0 -51 -1 -98 -61 l-47 -61 -3 146 -3 146 -39 0 -40
0 0 -260z"/>
<path d="M260 964 c-14 -2 -42 -9 -62 -15 l-38 -10 0 -169 0 -170 40 0 40 0 0
144 0 144 31 6 c17 3 45 6 61 6 27 0 29 2 26 33 -3 29 -6 32 -38 33 -19 1 -46
0 -60 -2z"/>
<path d="M467 956 c-50 -19 -76 -42 -98 -91 -24 -51 -24 -119 0 -171 41 -91
131 -120 269 -87 17 4 22 12 22 40 l0 35 -42 -9 c-103 -19 -166 1 -181 58 -5
18 1 19 92 19 90 0 100 2 125 25 30 28 33 62 10 111 -33 68 -119 99 -197 70z"/>
<path d="M855 966 c-5 -2 -38 -12 -72 -21 l-63 -18 0 -164 0 -163 40 0 39 0 3
142 3 143 43 9 c37 8 47 6 70 -11 27 -20 27 -22 30 -152 l3 -131 39 0 40 0 0
133 c0 143 -10 177 -62 211 -23 15 -94 29 -113 22z"/>
<path d="M1755 959 c-70 -22 -115 -88 -115 -172 0 -127 93 -211 214 -192 91
15 146 83 146 182 0 139 -112 223 -245 182z m125 -87 c54 -54 46 -172 -13
-200 -89 -43 -170 55 -135 163 22 68 98 87 148 37z"/>
<path d="M2123 960 c-86 -18 -83 -10 -83 -195 l0 -165 40 0 40 0 0 144 0 144
31 6 c17 3 45 6 61 6 27 0 29 2 26 33 -3 29 -6 32 -38 34 -19 1 -54 -3 -77 -7z"/>
<path d="M2357 956 c-78 -29 -117 -88 -117 -176 0 -64 18 -109 59 -143 44 -36
104 -51 166 -41 49 9 50 10 53 48 3 33 1 38 -13 32 -107 -41 -185 5 -185 108
0 36 6 52 29 78 24 27 36 32 72 33 24 0 56 -3 72 -8 26 -7 27 -6 27 27 0 19
-3 37 -7 39 -23 14 -121 16 -156 3z"/>
<path d="M2658 960 c-75 -22 -117 -86 -118 -178 -1 -146 98 -213 263 -179 34
7 37 11 37 42 0 39 0 39 -68 24 -60 -14 -96 -6 -128 28 -43 46 -34 53 70 53
79 0 97 3 120 21 59 46 14 165 -72 189 -43 11 -66 12 -104 0z"/>
</g>
</svg>
