<?xml version="1.0" encoding="utf-8"?>
<!-- Generator: Adobe Illustrator 17.0.0, SVG Export Plug-In . SVG Version: 6.00 Build 0)  -->
<!DOCTYPE svg PUBLIC "-//W3C//DTD SVG 1.1//EN" "http://www.w3.org/Graphics/SVG/1.1/DTD/svg11.dtd">
<svg version="1.1" id="Layer_1" xmlns="http://www.w3.org/2000/svg" xmlns:xlink="http://www.w3.org/1999/xlink" x="0px" y="0px"
	 width="581.007px" height="1706.504px" viewBox="0 0 581.007 1706.504" enable-background="new 0 0 581.007 1706.504"
	 xml:space="preserve">
<path d="M392.503,8.504H188.504c-49.496,0-94.495,20.252-127.122,52.878C28.755,94.009,8.504,139.008,8.504,188.504V1518
	c0,49.495,20.252,94.495,52.878,127.122C94.009,1677.749,139.008,1698,188.504,1698h203.999c49.496,0,94.495-20.252,127.122-52.878
	c32.627-32.627,52.878-77.626,52.878-127.122V188.504c0-49.496-20.252-94.495-52.878-127.122
	C486.998,28.755,441.999,8.504,392.503,8.504 M188.504,0h203.999c51.842,0,98.97,21.206,133.134,55.37s55.37,81.291,55.37,133.134
	V1518c0,51.843-21.206,98.97-55.37,133.134s-81.291,55.37-133.134,55.37H188.504c-51.843,0-98.97-21.206-133.134-55.37
	C21.206,1616.97,0,1569.843,0,1518V188.504c0-51.843,21.206-98.97,55.37-133.134S136.661,0,188.504,0z"/>
<path d="M163.492,436.029h92.126c3.923,0,7.132,3.209,7.132,7.132v36.056c0,3.923-3.209,7.132-7.132,7.132h-92.126
	c-3.923,0-7.132-3.209-7.132-7.132v-36.056C156.361,439.238,159.57,436.029,163.492,436.029z"/>
<path d="M286.81,886.309h6.285c0.984,0,1.861-0.045,2.63-0.136c0.767-0.09,1.429-0.227,1.984-0.41l0,0
	c0.555-0.182,1.052-0.401,1.493-0.656c0.439-0.254,0.823-0.546,1.151-0.874c0.461-0.464,0.873-1.011,1.234-1.637
	c0.361-0.626,0.672-1.335,0.931-2.124c0.26-0.791,0.457-1.667,0.587-2.626c0.13-0.956,0.196-1.998,0.196-3.126
	c0-1.562-0.128-2.942-0.383-4.141c-0.255-1.197-0.636-2.214-1.143-3.048c-0.507-0.835-1.07-1.532-1.687-2.091
	c-0.615-0.556-1.284-0.975-2.008-1.256c-0.521-0.202-1.206-0.354-2.052-0.455c-0.85-0.101-1.864-0.152-3.039-0.152h-6.18
	L286.81,886.309L286.81,886.309z M304.106,741.394l3.978,1.005l0.105,0.026l-0.027,0.105c-0.418,1.64-1.003,3.083-1.755,4.333
	c-0.753,1.251-1.675,2.309-2.763,3.171c-1.089,0.863-2.3,1.512-3.632,1.944c-1.329,0.432-2.779,0.648-4.349,0.648
	c-1.62,0-3.092-0.166-4.412-0.496c-1.323-0.331-2.496-0.831-3.519-1.497c-1.021-0.662-1.92-1.474-2.696-2.435
	c-0.774-0.959-1.427-2.067-1.958-3.322c-0.53-1.257-0.929-2.557-1.194-3.901c-0.265-1.345-0.399-2.736-0.399-4.173
	c0-1.567,0.149-3.035,0.448-4.404s0.749-2.64,1.35-3.811c0.601-1.171,1.33-2.203,2.185-3.093s1.838-1.641,2.946-2.25
	c1.106-0.607,2.269-1.063,3.486-1.366c1.22-0.304,2.495-0.456,3.824-0.456c1.511,0,2.902,0.192,4.172,0.576
	c1.271,0.385,2.422,0.963,3.451,1.735l0,0c1.032,0.771,1.908,1.698,2.627,2.781c0.718,1.081,1.279,2.318,1.683,3.71l0.032,0.109
	l-0.111,0.026l-3.894,0.921l-0.097,0.023l-0.03-0.095c-0.342-1.079-0.764-2.013-1.263-2.798c-0.497-0.784-1.072-1.42-1.721-1.908
	l0,0c-0.649-0.491-1.383-0.859-2.201-1.104c-0.82-0.245-1.726-0.368-2.717-0.368c-1.139,0-2.186,0.137-3.137,0.41
	c-0.949,0.272-1.805,0.68-2.565,1.224c-0.761,0.544-1.411,1.184-1.947,1.917c-0.536,0.733-0.958,1.559-1.265,2.475
	c-0.312,0.926-0.546,1.866-0.702,2.82c-0.156,0.953-0.234,1.921-0.234,2.903c0,1.269,0.092,2.457,0.276,3.562v0.001
	c0.183,1.105,0.46,2.129,0.826,3.07c0.365,0.941,0.833,1.763,1.402,2.464c0.568,0.701,1.237,1.282,2.008,1.747
	c0.773,0.466,1.578,0.815,2.413,1.047s1.703,0.347,2.605,0.347c1.098,0,2.109-0.159,3.034-0.475
	c0.924-0.315,1.765-0.789,2.521-1.419c0.757-0.634,1.393-1.419,1.906-2.357c0.515-0.941,0.907-2.038,1.177-3.291l0.024-0.11
	L304.106,741.394z M287.798,610.472h7.36c0.642,0,1.186-0.012,1.634-0.036c0.446-0.024,0.797-0.06,1.054-0.108h0.001
	c0.448-0.079,0.862-0.186,1.24-0.321l0,0c0.373-0.133,0.711-0.294,1.011-0.481c0.298-0.186,0.57-0.416,0.815-0.687
	c0.247-0.273,0.467-0.59,0.662-0.948c0.194-0.357,0.339-0.742,0.435-1.156c0.097-0.414,0.145-0.856,0.145-1.326
	c0-0.552-0.07-1.065-0.211-1.542c-0.141-0.476-0.352-0.916-0.635-1.321h-0.001c-0.279-0.405-0.613-0.749-1.001-1.032
	c-0.388-0.284-0.832-0.507-1.331-0.671l0,0c-0.499-0.165-1.111-0.29-1.833-0.372c-0.726-0.083-1.565-0.125-2.516-0.125h-6.829
	L287.798,610.472L287.798,610.472z M287.798,596.612h6.375c0.876,0,1.626-0.03,2.249-0.087c0.624-0.058,1.126-0.144,1.502-0.258
	h0.001c0.495-0.147,0.929-0.343,1.299-0.586c0.37-0.243,0.679-0.535,0.926-0.874c0.247-0.339,0.434-0.721,0.558-1.146
	c0.125-0.427,0.188-0.899,0.188-1.415c0-0.492-0.058-0.953-0.175-1.382c-0.116-0.427-0.292-0.825-0.526-1.191l-0.001-0.001
	c-0.23-0.369-0.512-0.681-0.843-0.934s-0.712-0.448-1.143-0.583c-0.436-0.137-1.031-0.241-1.782-0.31
	c-0.754-0.069-1.669-0.104-2.743-0.104h-5.887v8.871H287.798z M283.604,614.098v-29.982v-0.108h0.108h11.25
	c1.149,0,2.186,0.076,3.112,0.228c0.928,0.152,1.742,0.382,2.445,0.689c0.701,0.308,1.326,0.7,1.875,1.174
	c0.548,0.474,1.022,1.033,1.419,1.674c0.399,0.637,0.699,1.29,0.897,1.957c0.199,0.669,0.298,1.355,0.298,2.056
	c0,0.647-0.089,1.278-0.264,1.89c-0.176,0.613-0.441,1.207-0.791,1.781c-0.662,1.083-1.645,1.97-2.947,2.661
	c0.813,0.259,1.541,0.598,2.181,1.015c0.707,0.46,1.308,1.017,1.8,1.668c0.496,0.648,0.868,1.357,1.116,2.124
	s0.372,1.594,0.372,2.477c0,0.712-0.076,1.399-0.227,2.061l0,0c-0.151,0.661-0.378,1.297-0.678,1.908
	c-0.3,0.611-0.636,1.151-1.006,1.622c-0.372,0.472-0.781,0.875-1.224,1.209h-0.001c-0.444,0.33-0.943,0.62-1.497,0.87
	c-0.552,0.249-1.16,0.459-1.82,0.627c-0.664,0.168-1.402,0.295-2.215,0.38c-0.812,0.084-1.698,0.126-2.655,0.126h-11.438h-0.108
	v-0.107H283.604z M289.374,463.76h9.906l-3.072-8.166v-0.001c-0.466-1.25-0.874-2.387-1.226-3.41
	c-0.309-0.901-0.578-1.721-0.805-2.459c-0.186,0.843-0.399,1.679-0.636,2.508c-0.275,0.961-0.587,1.919-0.934,2.872v0.001
	L289.374,463.76z M280.491,476.141l11.501-29.981l0.027-0.07h0.074h4.362h0.073l0.027,0.067l12.206,29.981l0.061,0.149h-0.161
	h-4.516h-0.074l-0.027-0.07l-3.442-9.017h-12.475l-3.226,9.015l-0.026,0.072h-0.076h-4.208h-0.157L280.491,476.141z
	 M282.616,889.934v-29.982v-0.108h0.108h10.329c1.169,0,2.2,0.035,3.092,0.106c0.895,0.071,1.652,0.179,2.272,0.323
	c0.864,0.2,1.667,0.482,2.407,0.844c0.742,0.363,1.42,0.807,2.035,1.329l0,0c0.799,0.676,1.497,1.444,2.093,2.305
	c0.595,0.86,1.09,1.814,1.484,2.862c0.396,1.044,0.693,2.165,0.89,3.359c0.198,1.197,0.297,2.469,0.297,3.812
	c0,1.141-0.067,2.219-0.2,3.233c-0.134,1.015-0.334,1.965-0.6,2.849c-0.266,0.882-0.572,1.691-0.915,2.424
	c-0.344,0.735-0.727,1.395-1.146,1.977l0,0c-0.422,0.58-0.862,1.099-1.322,1.556c-0.46,0.458-0.941,0.854-1.441,1.185l0,0
	c-0.496,0.334-1.046,0.629-1.649,0.883c-0.601,0.254-1.255,0.467-1.96,0.64c-0.706,0.172-1.463,0.301-2.271,0.385
	c-0.809,0.085-1.668,0.127-2.577,0.127h-10.817h-0.108v-0.109H282.616z"/>
<circle cx="216.819" cy="335.216" r="5.781"/>
<path fill="#707070" stroke="#FFFFFF" stroke-width="0.5669" stroke-miterlimit="22.9256" d="M163.492,436.029h92.126
	c3.923,0,7.132,3.209,7.132,7.132v36.056c0,3.923-3.209,7.132-7.132,7.132h-92.126c-3.923,0-7.132-3.209-7.132-7.132v-36.056
	C156.361,439.238,159.57,436.029,163.492,436.029z"/>
<path d="M333.636,436.029h92.126c3.923,0,7.132,3.209,7.132,7.132v36.056c0,3.923-3.209,7.132-7.132,7.132h-92.126
	c-3.923,0-7.132-3.209-7.132-7.132v-36.056C326.504,439.238,329.713,436.029,333.636,436.029z"/>
<path fill="#707070" stroke="#FFFFFF" stroke-width="0.5669" stroke-miterlimit="22.9256" d="M333.636,436.029h92.126
	c3.923,0,7.132,3.209,7.132,7.132v36.056c0,3.923-3.209,7.132-7.132,7.132h-92.126c-3.923,0-7.132-3.209-7.132-7.132v-36.056
	C326.504,439.238,329.713,436.029,333.636,436.029z"/>
<circle fill="#000000" stroke="#FFFFFF" stroke-width="0.5669" stroke-miterlimit="22.9256" cx="216.819" cy="335.216" r="5.781"/>
<path d="M163.492,573.947h92.126c3.923,0,7.132,3.209,7.132,7.132v36.056c0,3.923-3.209,7.132-7.132,7.132h-92.126
	c-3.923,0-7.132-3.209-7.132-7.132v-36.056C156.361,577.156,159.57,573.947,163.492,573.947z"/>
<path fill="#707070" stroke="#FFFFFF" stroke-width="0.5669" stroke-miterlimit="22.9256" d="M163.492,573.947h92.126
	c3.923,0,7.132,3.209,7.132,7.132v36.056c0,3.923-3.209,7.132-7.132,7.132h-92.126c-3.923,0-7.132-3.209-7.132-7.132v-36.056
	C156.361,577.156,159.57,573.947,163.492,573.947z"/>
<path d="M333.636,573.947h92.126c3.923,0,7.132,3.209,7.132,7.132v36.056c0,3.923-3.209,7.132-7.132,7.132h-92.126
	c-3.923,0-7.132-3.209-7.132-7.132v-36.056C326.504,577.156,329.713,573.947,333.636,573.947z"/>
<path fill="#707070" stroke="#FFFFFF" stroke-width="0.5669" stroke-miterlimit="22.9256" d="M333.636,573.947h92.126
	c3.923,0,7.132,3.209,7.132,7.132v36.056c0,3.923-3.209,7.132-7.132,7.132h-92.126c-3.923,0-7.132-3.209-7.132-7.132v-36.056
	C326.504,577.156,329.713,573.947,333.636,573.947z"/>
<path d="M163.492,711.865h92.126c3.923,0,7.132,3.209,7.132,7.132v36.056c0,3.922-3.209,7.131-7.132,7.131h-92.126
	c-3.923,0-7.132-3.209-7.132-7.131v-36.056C156.361,715.075,159.57,711.865,163.492,711.865z"/>
<path fill="#707070" stroke="#FFFFFF" stroke-width="0.5669" stroke-miterlimit="22.9256" d="M163.492,711.865h92.126
	c3.923,0,7.132,3.209,7.132,7.132v36.056c0,3.922-3.209,7.131-7.132,7.131h-92.126c-3.923,0-7.132-3.209-7.132-7.131v-36.056
	C156.361,715.075,159.57,711.865,163.492,711.865z"/>
<path d="M333.636,711.865h92.126c3.923,0,7.132,3.209,7.132,7.132v36.056c0,3.922-3.209,7.131-7.132,7.131h-92.126
	c-3.923,0-7.132-3.209-7.132-7.131v-36.056C326.504,715.075,329.713,711.865,333.636,711.865z"/>
<path fill="#707070" stroke="#FFFFFF" stroke-width="0.5669" stroke-miterlimit="22.9256" d="M333.636,711.865h92.126
	c3.923,0,7.132,3.209,7.132,7.132v36.056c0,3.922-3.209,7.131-7.132,7.131h-92.126c-3.923,0-7.132-3.209-7.132-7.131v-36.056
	C326.504,715.075,329.713,711.865,333.636,711.865z"/>
<path d="M163.492,849.784h92.126c3.923,0,7.132,3.209,7.132,7.132v36.056c0,3.923-3.209,7.132-7.132,7.132h-92.126
	c-3.923,0-7.132-3.209-7.132-7.132v-36.056C156.361,852.993,159.57,849.784,163.492,849.784z"/>
<path fill="#707070" stroke="#FFFFFF" stroke-width="0.5669" stroke-miterlimit="22.9256" d="M163.492,849.784h92.126
	c3.923,0,7.132,3.209,7.132,7.132v36.056c0,3.923-3.209,7.132-7.132,7.132h-92.126c-3.923,0-7.132-3.209-7.132-7.132v-36.056
	C156.361,852.993,159.57,849.784,163.492,849.784z"/>
<path d="M333.636,849.784h92.126c3.923,0,7.132,3.209,7.132,7.132v36.056c0,3.923-3.209,7.132-7.132,7.132h-92.126
	c-3.923,0-7.132-3.209-7.132-7.132v-36.056C326.504,852.993,329.713,849.784,333.636,849.784z"/>
<path fill="#707070" stroke="#FFFFFF" stroke-width="0.5669" stroke-miterlimit="22.9256" d="M333.636,849.784h92.126
	c3.923,0,7.132,3.209,7.132,7.132v36.056c0,3.923-3.209,7.132-7.132,7.132h-92.126c-3.923,0-7.132-3.209-7.132-7.132v-36.056
	C326.504,852.993,329.713,849.784,333.636,849.784z"/>
<path d="M163.492,987.702h92.126c3.923,0,7.132,3.209,7.132,7.132v36.056c0,3.923-3.209,7.132-7.132,7.132h-92.126
	c-3.923,0-7.132-3.209-7.132-7.132v-36.056C156.361,990.911,159.57,987.702,163.492,987.702z"/>
<path fill="#707070" stroke="#FFFFFF" stroke-width="0.5669" stroke-miterlimit="22.9256" d="M163.492,987.702h92.126
	c3.923,0,7.132,3.209,7.132,7.132v36.056c0,3.923-3.209,7.132-7.132,7.132h-92.126c-3.923,0-7.132-3.209-7.132-7.132v-36.056
	C156.361,990.911,159.57,987.702,163.492,987.702z"/>
<path d="M333.636,987.702h92.126c3.923,0,7.132,3.209,7.132,7.132v36.056c0,3.923-3.209,7.132-7.132,7.132h-92.126
	c-3.923,0-7.132-3.209-7.132-7.132v-36.056C326.504,990.911,329.713,987.702,333.636,987.702z"/>
<path fill="#707070" stroke="#FFFFFF" stroke-width="0.5669" stroke-miterlimit="22.9256" d="M333.636,987.702h92.126
	c3.923,0,7.132,3.209,7.132,7.132v36.056c0,3.923-3.209,7.132-7.132,7.132h-92.126c-3.923,0-7.132-3.209-7.132-7.132v-36.056
	C326.504,990.911,329.713,987.702,333.636,987.702z"/>
<path d="M347.276,974.051v-21.732v-0.108h0.108h3.308h0.108v0.108v2.916c0.353-0.617,0.695-1.142,1.026-1.572l0,0
	c0.397-0.517,0.781-0.901,1.149-1.152l0,0c0.368-0.254,0.755-0.444,1.16-0.57c0.405-0.126,0.828-0.189,1.267-0.189
	c0.631,0,1.268,0.1,1.911,0.297c0.64,0.197,1.285,0.492,1.934,0.883l0.078,0.047l-0.033,0.085l-1.312,3.399l-0.045,0.116
	l-0.108-0.061c-0.439-0.247-0.879-0.433-1.317-0.556c-0.436-0.122-0.873-0.184-1.311-0.184c-0.389,0-0.758,0.059-1.104,0.176
	c-0.349,0.117-0.679,0.294-0.987,0.528c-0.307,0.233-0.572,0.513-0.792,0.839c-0.221,0.326-0.398,0.7-0.531,1.119
	c-0.204,0.646-0.356,1.325-0.457,2.034c-0.102,0.71-0.152,1.452-0.152,2.225v11.355v0.108h-0.108h-3.685h-0.108v-0.111H347.276z
	 M327.017,961.004h11.867c-0.082-0.855-0.233-1.605-0.451-2.25c-0.228-0.675-0.53-1.236-0.902-1.684v-0.001
	c-0.572-0.695-1.232-1.218-1.976-1.566c-0.744-0.348-1.575-0.522-2.491-0.522c-1.66,0-3.052,0.555-4.182,1.664
	c-0.561,0.555-0.999,1.205-1.31,1.948l0,0C327.271,959.309,327.087,960.113,327.017,961.004z M338.975,966.909l3.81,0.503
	l0.123,0.016l-0.032,0.119c-0.299,1.117-0.73,2.111-1.29,2.981c-0.561,0.871-1.252,1.617-2.071,2.235s-1.753,1.083-2.799,1.393
	c-1.043,0.309-2.2,0.464-3.47,0.464c-3.199,0-5.738-0.988-7.615-2.965c-0.939-0.985-1.643-2.17-2.112-3.554
	c-0.468-1.381-0.702-2.961-0.702-4.734c0-1.834,0.236-3.466,0.709-4.893l0,0c0.473-1.429,1.184-2.652,2.133-3.667
	c0.949-1.019,2.04-1.784,3.273-2.293c1.231-0.509,2.603-0.763,4.113-0.763c1.462,0,2.792,0.249,3.988,0.747
	c1.197,0.498,2.26,1.247,3.188,2.246c0.929,1,1.627,2.202,2.091,3.606c0.463,1.399,0.695,2.999,0.695,4.8
	c0,0.101-0.002,0.238-0.006,0.408c-0.003,0.166-0.009,0.358-0.016,0.572l-0.003,0.105h-0.104h-16.069
	c0.075,1.133,0.273,2.137,0.595,3.01c0.331,0.898,0.795,1.659,1.391,2.279l0,0c0.593,0.62,1.262,1.087,2.003,1.398
	c0.742,0.311,1.559,0.467,2.448,0.467c0.664,0,1.278-0.088,1.842-0.262c0.562-0.174,1.077-0.436,1.541-0.784l0,0
	c0.467-0.348,0.886-0.802,1.258-1.36c0.372-0.561,0.697-1.229,0.973-2.002l0.03-0.082L338.975,966.909z M320.608,970.747L321.11,974
	l0.016,0.101l-0.1,0.021c-0.522,0.109-1.019,0.193-1.485,0.248c-0.464,0.055-0.902,0.083-1.308,0.083
	c-0.673,0-1.272-0.053-1.797-0.16c-0.528-0.107-0.983-0.271-1.362-0.489h-0.001c-0.375-0.218-0.696-0.469-0.961-0.754
	c-0.266-0.286-0.477-0.607-0.632-0.964l0,0c-0.155-0.355-0.269-0.902-0.344-1.639c-0.075-0.731-0.112-1.652-0.112-2.759v-12.412
	h-2.614h-0.108v-0.108v-2.847v-0.108h0.108h2.614v-5.266v-0.061l0.053-0.031l3.685-2.212l0.163-0.098v0.19v7.478h3.577h0.108v0.108
	v2.847v0.108h-0.108h-3.577v12.622c0,0.526,0.016,0.956,0.047,1.288c0.031,0.326,0.077,0.56,0.139,0.699l0.001,0.002
	c0.058,0.139,0.136,0.264,0.233,0.374c0.098,0.111,0.215,0.209,0.351,0.293c0.137,0.082,0.305,0.144,0.504,0.186h0.001
	c0.201,0.042,0.433,0.064,0.697,0.064c0.202,0,0.436-0.012,0.698-0.036c0.26-0.024,0.558-0.06,0.892-0.109l0.106-0.016
	L320.608,970.747z M290.084,967.454l3.643-0.586l0.109-0.017l0.015,0.109c0.099,0.717,0.29,1.35,0.569,1.898
	c0.278,0.546,0.646,1.009,1.102,1.39c0.456,0.378,1.006,0.663,1.646,0.853c0.644,0.191,1.38,0.287,2.207,0.287
	c0.839,0,1.568-0.084,2.186-0.253c0.613-0.167,1.12-0.419,1.52-0.755c0.397-0.333,0.696-0.695,0.894-1.086
	c0.197-0.388,0.296-0.806,0.296-1.253c0-0.396-0.088-0.75-0.262-1.061c-0.175-0.311-0.439-0.582-0.79-0.809l0,0
	c-0.25-0.158-0.685-0.34-1.305-0.545c-0.626-0.207-1.437-0.437-2.432-0.691c-1.345-0.338-2.485-0.654-3.419-0.947
	c-0.941-0.295-1.676-0.569-2.204-0.819l-0.001-0.001c-0.528-0.255-0.994-0.558-1.395-0.907l0,0c-0.402-0.35-0.741-0.75-1.015-1.199
	c-0.274-0.445-0.481-0.916-0.619-1.411c-0.137-0.494-0.207-1.01-0.207-1.549c0-0.493,0.057-0.967,0.17-1.424
	c0.113-0.456,0.282-0.894,0.506-1.313v-0.001c0.227-0.418,0.493-0.802,0.8-1.15c0.305-0.347,0.652-0.659,1.039-0.937
	c0.291-0.213,0.635-0.41,1.032-0.591c0.396-0.181,0.844-0.346,1.339-0.493h0.001c0.501-0.148,1.017-0.259,1.551-0.333
	c0.534-0.074,1.085-0.111,1.655-0.111c0.856,0,1.661,0.062,2.415,0.186c0.753,0.124,1.455,0.311,2.104,0.561l0,0
	c0.651,0.246,1.217,0.539,1.699,0.876c0.488,0.341,0.89,0.728,1.204,1.157v0.001c0.31,0.432,0.575,0.935,0.79,1.51
	c0.212,0.567,0.377,1.205,0.493,1.913l0.018,0.109l-0.109,0.015l-3.601,0.503l-0.106,0.015l-0.015-0.107
	c-0.078-0.552-0.233-1.045-0.463-1.475c-0.229-0.43-0.535-0.8-0.915-1.108c-0.379-0.308-0.838-0.539-1.376-0.693
	c-0.542-0.155-1.166-0.232-1.871-0.232c-0.833,0-1.548,0.069-2.142,0.207c-0.585,0.135-1.053,0.338-1.399,0.608
	c-0.348,0.271-0.61,0.564-0.783,0.877c-0.171,0.31-0.257,0.644-0.257,0.998c0,0.227,0.035,0.444,0.106,0.648
	c0.07,0.203,0.176,0.396,0.318,0.577l0.001,0.001c0.144,0.187,0.329,0.361,0.556,0.518s0.496,0.299,0.806,0.424
	c0.185,0.07,0.553,0.185,1.103,0.345c0.524,0.152,1.234,0.35,2.133,0.594l0,0c1.285,0.342,2.381,0.655,3.285,0.938
	c0.924,0.289,1.649,0.546,2.173,0.769c0.523,0.222,0.99,0.499,1.401,0.824c0.415,0.328,0.772,0.709,1.073,1.139l0,0
	c0.303,0.432,0.531,0.916,0.681,1.452c0.15,0.534,0.225,1.12,0.225,1.757c0,0.62-0.091,1.225-0.273,1.811s-0.455,1.154-0.82,1.703
	c-0.365,0.55-0.811,1.038-1.336,1.464c-0.524,0.425-1.127,0.788-1.81,1.088l0,0c-0.685,0.3-1.414,0.524-2.185,0.673
	s-1.586,0.223-2.443,0.223c-1.419,0-2.672-0.148-3.758-0.442c-1.09-0.296-2.013-0.741-2.765-1.333l0,0
	c-0.751-0.595-1.366-1.332-1.845-2.211c-0.477-0.876-0.82-1.895-1.028-3.054l-0.019-0.108L290.084,967.454z M282.07,963.324
	c-0.648,0.251-1.441,0.484-2.378,0.699c-1.008,0.231-2.184,0.441-3.526,0.63c-0.759,0.108-1.406,0.223-1.939,0.344
	c-0.532,0.121-0.952,0.248-1.258,0.381c-0.302,0.131-0.571,0.293-0.804,0.484l0,0c-0.234,0.191-0.434,0.413-0.6,0.663
	c-0.165,0.252-0.29,0.519-0.373,0.799l0,0c-0.083,0.28-0.125,0.576-0.125,0.886c0,0.471,0.09,0.904,0.27,1.297
	c0.179,0.391,0.449,0.744,0.81,1.058c0.362,0.315,0.809,0.552,1.339,0.711c0.533,0.16,1.153,0.24,1.856,0.24
	c0.701,0,1.363-0.076,1.985-0.228c0.621-0.152,1.205-0.381,1.752-0.687l0,0c0.543-0.302,1.015-0.661,1.414-1.075
	c0.398-0.413,0.725-0.882,0.977-1.404c0.194-0.405,0.34-0.909,0.436-1.509c0.097-0.603,0.146-1.306,0.146-2.108v-0.002
	L282.07,963.324z M282.388,971.542c-0.632,0.527-1.253,0.98-1.862,1.361c-0.668,0.417-1.324,0.747-1.964,0.991
	c-0.637,0.243-1.299,0.425-1.984,0.545c-0.684,0.121-1.392,0.181-2.123,0.181c-1.204,0-2.271-0.147-3.199-0.44
	c-0.932-0.295-1.725-0.739-2.379-1.332c-0.653-0.589-1.144-1.263-1.471-2.02c-0.327-0.756-0.491-1.595-0.491-2.513
	c0-0.539,0.062-1.055,0.186-1.549c0.123-0.493,0.308-0.965,0.554-1.413v-0.001c0.247-0.446,0.534-0.847,0.857-1.204
	s0.685-0.67,1.082-0.94v-0.001c0.398-0.268,0.821-0.505,1.268-0.709c0.446-0.204,0.918-0.375,1.415-0.513l0.002-0.001
	c0.366-0.095,0.825-0.188,1.375-0.28c0.551-0.092,1.191-0.183,1.92-0.274h0.001c1.477-0.173,2.763-0.366,3.855-0.576
	c1.061-0.203,1.938-0.424,2.625-0.658l0.014-0.542c0.003-0.151,0.005-0.264,0.005-0.337c0-1.461-0.337-2.488-1.01-3.08
	c-0.459-0.405-1.032-0.708-1.717-0.91c-0.69-0.204-1.495-0.305-2.413-0.305c-0.859,0-1.606,0.076-2.239,0.226
	c-0.628,0.149-1.143,0.372-1.543,0.667c-0.403,0.294-0.753,0.704-1.05,1.228c-0.3,0.53-0.548,1.177-0.745,1.942l-0.024,0.093
	l-0.095-0.013l-3.601-0.503l-0.115-0.016l0.024-0.113c0.165-0.778,0.384-1.483,0.656-2.113l0,0c0.274-0.634,0.601-1.192,0.983-1.672
	c0.383-0.482,0.852-0.91,1.406-1.28c0.551-0.369,1.188-0.684,1.908-0.945l0,0c0.716-0.257,1.491-0.451,2.323-0.58
	c0.831-0.129,1.717-0.194,2.654-0.194c0.933,0,1.781,0.055,2.543,0.164c0.764,0.11,1.442,0.277,2.031,0.499
	c0.585,0.222,1.097,0.472,1.531,0.75c0.436,0.28,0.796,0.59,1.076,0.93c0.278,0.338,0.515,0.722,0.711,1.149
	c0.195,0.426,0.35,0.896,0.463,1.409l0.001,0.003c0.06,0.32,0.107,0.769,0.137,1.343c0.03,0.566,0.046,1.254,0.046,2.062v4.885
	c0,3.407,0.077,5.559,0.229,6.466v0.001c0.072,0.45,0.184,0.892,0.333,1.323l0,0c0.149,0.432,0.336,0.855,0.556,1.268l0.085,0.159
	h-0.18h-3.853h-0.067l-0.03-0.061c-0.188-0.394-0.343-0.822-0.463-1.281C282.521,972.418,282.442,971.992,282.388,971.542z
	 M233.666,974.051V944.07v-0.108h0.108h5.946h0.078l0.024,0.074l7.091,21.223v0.001c0.324,0.975,0.598,1.813,0.826,2.518
	c0.196,0.609,0.365,1.141,0.505,1.594c0.152-0.478,0.338-1.043,0.555-1.693c0.275-0.823,0.591-1.753,0.947-2.79l0,0l7.216-20.853
	l0.025-0.073h0.077h5.311h0.108v0.108v29.981v0.108h-0.108h-3.811h-0.108v-0.108v-24.446l-8.542,24.481l-0.025,0.073h-0.076h-3.573
	h-0.077l-0.025-0.073l-8.444-24.923v24.888v0.108h-0.108h-3.811h-0.108v-0.109H233.666z"/>
<path d="M208.835,327.232c2.043-2.043,4.867-3.307,7.984-3.307c3.118,0,5.941,1.264,7.984,3.307s3.307,4.866,3.307,7.984
	s-1.264,5.941-3.307,7.984s-4.867,3.307-7.984,3.307c-3.118,0-5.941-1.264-7.984-3.307s-3.307-4.867-3.307-7.984
	S206.792,329.275,208.835,327.232 M216.819,328.176c-1.944,0-3.704,0.788-4.978,2.062c-1.274,1.274-2.062,3.034-2.062,4.978
	s0.788,3.704,2.062,4.978s3.034,2.062,4.978,2.062s3.704-0.788,4.978-2.062c1.273-1.273,2.062-3.034,2.062-4.978
	s-0.788-3.704-2.062-4.978C220.523,328.964,218.763,328.176,216.819,328.176z"/>
<path d="M399.303,1085.802v-29.981v-0.108h0.108h20.225h0.108v0.108v3.517v0.108h-0.108h-16.139v9.122h13.961h0.108v0.108v3.518
	v0.108h-0.108h-13.961v13.501v0.108h-0.108h-3.978h-0.108V1085.802z M373.725,1085.802v-29.981v-0.108h0.108h20.225h0.108v0.108
	v3.517v0.108h-0.108h-16.139v9.122h13.962h0.108v0.108v3.518v0.108h-0.108h-13.962v13.501v0.108h-0.108h-3.978h-0.108V1085.802z
	 M344.05,1071.278c0,1.793,0.241,3.394,0.722,4.802c0.48,1.405,1.2,2.622,2.159,3.646c0.96,1.025,2.042,1.795,3.247,2.308
	c1.204,0.513,2.531,0.77,3.981,0.77c2.956,0,5.379-1.036,7.29-3.105c0.952-1.035,1.667-2.289,2.144-3.76
	c0.478-1.475,0.717-3.171,0.717-5.086c0-1.211-0.102-2.346-0.307-3.403c-0.204-1.054-0.511-2.033-0.919-2.932
	c-0.407-0.897-0.91-1.696-1.506-2.392c-0.596-0.696-1.286-1.292-2.068-1.784c-0.786-0.493-1.62-0.864-2.501-1.112
	c-0.88-0.248-1.81-0.372-2.788-0.372c-1.39,0-2.682,0.238-3.876,0.714c-1.194,0.476-2.293,1.192-3.294,2.145
	c-0.998,0.95-1.748,2.219-2.249,3.807C344.302,1067.121,344.05,1069.038,344.05,1071.278z M339.731,1071.209
	c0-2.496,0.337-4.723,1.01-6.68c0.674-1.961,1.685-3.652,3.033-5.07c1.347-1.418,2.89-2.48,4.629-3.188
	c1.737-0.708,3.671-1.061,5.799-1.061c1.394,0,2.719,0.167,3.976,0.5c1.256,0.333,2.445,0.833,3.567,1.497
	c1.12,0.665,2.107,1.463,2.962,2.392c0.853,0.928,1.574,1.989,2.161,3.18c0.587,1.188,1.028,2.458,1.322,3.806
	c0.293,1.346,0.441,2.771,0.441,4.274c0,1.526-0.155,2.974-0.464,4.342c-0.309,1.367-0.773,2.654-1.391,3.859
	c-0.619,1.209-1.367,2.272-2.242,3.187c-0.876,0.915-1.882,1.683-3.015,2.302c-1.135,0.622-2.315,1.088-3.538,1.398
	s-2.49,0.465-3.8,0.465c-1.423,0-2.769-0.172-4.039-0.516c-1.271-0.343-2.467-0.859-3.59-1.545c-1.12-0.687-2.106-1.5-2.957-2.438
	c-0.848-0.936-1.561-1.997-2.136-3.182l0,0c-0.576-1.183-1.008-2.402-1.296-3.656
	C339.875,1073.821,339.731,1072.532,339.731,1071.209z M213.788,1085.802v-29.981v-0.108h0.108h4.076h0.057l0.032,0.048
	l15.533,23.237v-23.177v-0.108h0.108h3.81h0.108v0.108v29.981v0.108h-0.108h-4.076h-0.057l-0.032-0.048l-15.533-23.237v23.177v0.108
	h-0.108h-3.81h-0.108V1085.802z M184.365,1071.278c0,1.793,0.241,3.394,0.722,4.802c0.48,1.405,1.2,2.622,2.159,3.646
	c0.96,1.025,2.042,1.795,3.247,2.308c1.204,0.513,2.531,0.77,3.981,0.77c2.956,0,5.379-1.036,7.29-3.105
	c0.952-1.035,1.667-2.289,2.144-3.76c0.478-1.475,0.717-3.171,0.717-5.086c0-1.211-0.102-2.346-0.307-3.403
	c-0.204-1.054-0.511-2.033-0.919-2.932c-0.407-0.897-0.91-1.696-1.506-2.392c-0.596-0.696-1.286-1.292-2.068-1.784
	c-0.786-0.493-1.62-0.864-2.501-1.112c-0.88-0.248-1.81-0.372-2.788-0.372c-1.39,0-2.682,0.238-3.876,0.714
	c-1.194,0.476-2.293,1.192-3.294,2.145c-0.998,0.95-1.748,2.219-2.249,3.807C184.616,1067.121,184.365,1069.038,184.365,1071.278z
	 M180.045,1071.209c0-2.496,0.337-4.723,1.01-6.68c0.674-1.961,1.686-3.652,3.033-5.07s2.89-2.48,4.629-3.188
	c1.737-0.708,3.671-1.061,5.799-1.061c1.394,0,2.719,0.167,3.976,0.5c1.256,0.333,2.445,0.833,3.567,1.497
	c1.12,0.665,2.107,1.463,2.962,2.392c0.853,0.928,1.574,1.989,2.161,3.18c0.587,1.188,1.028,2.458,1.322,3.806
	c0.293,1.346,0.441,2.771,0.441,4.274c0,1.526-0.155,2.974-0.464,4.342c-0.309,1.367-0.773,2.654-1.391,3.859
	c-0.619,1.209-1.367,2.272-2.243,3.187c-0.876,0.915-1.882,1.683-3.015,2.302c-1.135,0.622-2.315,1.088-3.538,1.398
	c-1.223,0.31-2.49,0.465-3.8,0.465c-1.423,0-2.769-0.172-4.039-0.516c-1.271-0.343-2.467-0.859-3.59-1.545
	c-1.12-0.687-2.106-1.5-2.957-2.438c-0.848-0.936-1.561-1.997-2.136-3.182l0,0c-0.576-1.183-1.008-2.402-1.296-3.656
	C180.189,1073.821,180.045,1072.532,180.045,1071.209z"/>
</svg>
