<?xml version="1.0" encoding="utf-8"?>
<!-- Generator: Adobe Illustrator 17.0.0, SVG Export Plug-In . SVG Version: 6.00 Build 0)  -->
<!DOCTYPE svg PUBLIC "-//W3C//DTD SVG 1.1//EN" "http://www.w3.org/Graphics/SVG/1.1/DTD/svg11.dtd">
<svg version="1.1" id="Layer_1" xmlns="http://www.w3.org/2000/svg" xmlns:xlink="http://www.w3.org/1999/xlink" x="0px" y="0px"
	 width="118.173px" height="331.882px" viewBox="0 0 118.173 331.882" enable-background="new 0 0 118.173 331.882"
	 xml:space="preserve" xmlns:pulse="-">
<g>
	<path fill-rule="evenodd" clip-rule="evenodd" fill="#000000" d="M30.812,76.882c0-0.862,0.318-1.738,1.026-2.446h0.001
		c0.686-0.684,1.586-1.027,2.484-1.027c0.899,0,1.799,0.341,2.481,1.024l0,0.001c0.684,0.684,1.026,1.583,1.027,2.481
		c0,0.898-0.342,1.797-1.027,2.482v0.001l0,0.001l0,0c-0.321,0.324-0.707,0.584-1.136,0.762h0c-0.414,0.171-0.868,0.266-1.344,0.266
		c-1.006,0-1.851-0.395-2.459-1.004l0,0c-0.333-0.333-0.597-0.732-0.776-1.167C30.907,77.822,30.812,77.354,30.812,76.882"/>
</g>
<g>
	<path pulse:unit="0" pulse:state="0" fill-rule="evenodd" clip-rule="evenodd" fill="#707070" d="M89.441,106.229H67.32c-0.323,0-0.587,0.264-0.587,0.588v11.847
		c0,0.323,0.264,0.588,0.587,0.588h22.121c0.323,0,0.588-0.264,0.588-0.588v-11.847C90.028,106.493,89.764,106.229,89.441,106.229"
		/>
</g>
<g>
	<path pulse:initial="true" pulse:unit="0" pulse:state="1" fill-rule="evenodd" clip-rule="evenodd" fill="#707070" d="M50.853,106.229H28.732c-0.323,0-0.587,0.264-0.587,0.588v11.847
		c0,0.323,0.264,0.588,0.587,0.588h22.121c0.323,0,0.588-0.264,0.588-0.588v-11.847C51.44,106.493,51.176,106.229,50.853,106.229"/>
</g>
<g>
	<path pulse:unit="1" pulse:state="0" fill-rule="evenodd" clip-rule="evenodd" fill="#707070" d="M89.441,130.899H67.32c-0.323,0-0.587,0.264-0.587,0.588v11.847
		c0,0.323,0.264,0.588,0.587,0.588h22.121c0.323,0,0.588-0.264,0.588-0.588v-11.847C90.028,131.163,89.764,130.899,89.441,130.899"
		/>
</g>
<g>
	<path pulse:unit="1" pulse:state="1" fill-rule="evenodd" clip-rule="evenodd" fill="#707070" d="M50.853,130.899H28.732c-0.323,0-0.587,0.264-0.587,0.588v11.847
		c0,0.323,0.264,0.588,0.587,0.588h22.121c0.323,0,0.588-0.264,0.588-0.588v-11.847C51.44,131.163,51.176,130.899,50.853,130.899"/>
</g>
<g>
	<path pulse:unit="2" pulse:state="0" fill-rule="evenodd" clip-rule="evenodd" fill="#707070" d="M89.441,155.57H67.32c-0.323,0-0.587,0.264-0.587,0.588v11.847
		c0,0.324,0.264,0.588,0.587,0.588h22.121c0.323,0,0.588-0.264,0.588-0.588v-11.847C90.028,155.834,89.764,155.57,89.441,155.57"/>
</g>
<g>
	<path pulse:unit="2" pulse:state="1" fill-rule="evenodd" clip-rule="evenodd" fill="#707070" d="M50.853,155.57H28.732c-0.323,0-0.587,0.264-0.587,0.588v11.847
		c0,0.324,0.264,0.588,0.587,0.588h22.121c0.323,0,0.588-0.264,0.588-0.588v-11.847C51.44,155.834,51.176,155.57,50.853,155.57"/>
</g>
<g>
	<path pulse:unit="3" pulse:state="0" fill-rule="evenodd" clip-rule="evenodd" fill="#707070" d="M89.441,180.24H67.32c-0.323,0-0.587,0.264-0.587,0.588v11.847
		c0,0.324,0.264,0.588,0.587,0.588h22.121c0.323,0,0.588-0.264,0.588-0.588v-11.847C90.028,180.504,89.764,180.24,89.441,180.24"/>
</g>
<g>
	<path pulse:unit="3" pulse:state="1" fill-rule="evenodd" clip-rule="evenodd" fill="#707070" d="M50.853,180.24H28.732c-0.323,0-0.587,0.264-0.587,0.588v11.847
		c0,0.324,0.264,0.588,0.587,0.588h22.121c0.323,0,0.588-0.264,0.588-0.588v-11.847C51.44,180.504,51.176,180.24,50.853,180.24"/>
</g>
<g>
	<path d="M60.027,0.002L56.459,0C41.018,0,0,0,0,23.231v290.297c0,10.12,8.234,18.354,18.354,18.354h81.464
		c10.12,0,18.354-8.234,18.354-18.354V23.231C118.173,0.002,75.93,0.002,60.027,0.002z M116.047,313.528
		c0,8.948-7.28,16.229-16.229,16.229H18.354c-8.948,0-16.229-7.28-16.229-16.229V23.231C2.126,2.126,41.6,2.126,56.459,2.126
		l3.568,0.002c15.321,0,56.02,0,56.02,21.103V313.528z"/>
	<path d="M59.187,9.186h-0.502c-12.243,0-49.5,0-49.5,14.045v290.297c0,5.057,4.114,9.17,9.17,9.17h81.464
		c5.057,0,9.17-4.113,9.17-9.17V23.231C108.988,13.912,92.232,9.186,59.187,9.186z M107.996,313.528c0,4.51-3.668,8.178-8.178,8.178
		H18.354c-4.51,0-8.178-3.668-8.178-8.178V23.231c0-8.661,16.32-13.053,48.508-13.053h0.502c40.341,0,48.809,7.098,48.809,13.053
		V313.528z"/>
	<path d="M34.322,81.494c1.264,0,2.409-0.513,3.237-1.341l-0.001-0.001c0.829-0.829,1.341-1.974,1.341-3.236
		c0-1.264-0.513-2.409-1.341-3.237l-0.001,0.001c-0.829-0.829-1.973-1.341-3.236-1.341c-1.263,0-2.407,0.513-3.236,1.341
		l-0.001-0.001c-0.828,0.828-1.341,1.973-1.341,3.237c0,1.263,0.513,2.408,1.341,3.236l-0.001,0.001
		C31.914,80.982,33.058,81.494,34.322,81.494z M30.312,76.917c0-1.107,0.449-2.11,1.175-2.836V74.08
		c0.725-0.725,1.728-1.174,2.836-1.174c1.108,0,2.111,0.449,2.836,1.174v0.001c0.725,0.725,1.175,1.729,1.175,2.836
		c0,1.108-0.448,2.111-1.173,2.836h-0.001c-0.725,0.725-1.729,1.175-2.836,1.175c-1.107,0-2.11-0.449-2.836-1.175h-0.001
		C30.76,79.028,30.312,78.025,30.312,76.917z"/>
	<path d="M57.479,114.187h2.845l0.79,2.073l0.018,0.045h1.207l-2.885-7.086l-0.018-0.044h-1.113l-2.698,7.034l-0.037,0.096h1.134
		L57.479,114.187z M57.804,113.293l0.73-1.956c0.131-0.36,0.242-0.728,0.33-1.096c0.111,0.348,0.254,0.754,0.424,1.21l0.692,1.842
		H57.804z"/>
	<path d="M61.175,136.569c0.168-0.274,0.253-0.57,0.253-0.88c0-0.335-0.097-0.658-0.285-0.959c-0.189-0.306-0.455-0.535-0.789-0.682
		c-0.329-0.144-0.771-0.217-1.313-0.217h-2.693v7.13h2.737c0.449,0,0.835-0.04,1.146-0.119c0.313-0.08,0.579-0.2,0.79-0.357
		c0.211-0.159,0.391-0.387,0.533-0.676c0.143-0.292,0.216-0.61,0.216-0.945c0-0.422-0.12-0.792-0.356-1.1
		c-0.205-0.272-0.491-0.476-0.853-0.608C60.826,136.998,61.032,136.801,61.175,136.569z M57.416,136.769v-1.977h1.327
		c0.492,0,0.842,0.032,1.041,0.094c0.189,0.06,0.336,0.172,0.438,0.335c0.104,0.163,0.156,0.356,0.156,0.575
		c0,0.227-0.055,0.419-0.165,0.57c-0.109,0.149-0.275,0.258-0.495,0.324c-0.172,0.052-0.462,0.079-0.861,0.079H57.416z
		 M60.671,138.864c0,0.211-0.043,0.398-0.13,0.557c-0.087,0.16-0.197,0.282-0.327,0.364c-0.135,0.084-0.306,0.145-0.51,0.181
		c-0.116,0.022-0.324,0.033-0.618,0.033h-1.67v-2.27h1.546c0.434,0,0.771,0.038,1,0.114c0.222,0.073,0.396,0.201,0.521,0.38
		C60.609,138.405,60.671,138.615,60.671,138.864z"/>
	<path d="M61.365,163.113c-0.123,0.569-0.359,1.003-0.702,1.291c-0.35,0.29-0.764,0.431-1.267,0.431
		c-0.41,0-0.796-0.107-1.146-0.318c-0.35-0.211-0.611-0.534-0.776-0.959c-0.168-0.432-0.254-0.947-0.254-1.529
		c0-0.45,0.073-0.895,0.216-1.32c0.139-0.416,0.385-0.752,0.732-1.001c0.346-0.247,0.784-0.372,1.302-0.372
		c0.45,0,0.827,0.112,1.119,0.334c0.295,0.221,0.523,0.583,0.68,1.074l0.02,0.063l1.045-0.247l-0.021-0.072
		c-0.191-0.656-0.535-1.173-1.021-1.537c-0.484-0.363-1.092-0.547-1.804-0.547c-0.626,0-1.207,0.145-1.726,0.43
		c-0.523,0.287-0.932,0.712-1.215,1.264c-0.281,0.548-0.424,1.199-0.424,1.936c0,0.671,0.126,1.311,0.375,1.9
		c0.25,0.592,0.621,1.05,1.102,1.362c0.479,0.313,1.11,0.471,1.874,0.471c0.74,0,1.375-0.207,1.888-0.614
		c0.514-0.407,0.874-1.004,1.069-1.773l0.018-0.069l-1.067-0.27L61.365,163.113z"/>
	<path d="M61.18,183.803c-0.292-0.248-0.646-0.422-1.055-0.517c-0.292-0.067-0.704-0.101-1.261-0.101h-2.478v7.131h2.592
		c0.429,0,0.813-0.041,1.141-0.122c0.335-0.082,0.623-0.204,0.855-0.36c0.236-0.156,0.451-0.369,0.656-0.651
		c0.197-0.273,0.361-0.623,0.486-1.038c0.126-0.414,0.189-0.896,0.189-1.432c0-0.632-0.095-1.199-0.28-1.687
		C61.842,184.535,61.558,184.123,61.18,183.803z M57.455,184.148h1.395c0.541,0,0.935,0.046,1.17,0.139
		c0.326,0.126,0.607,0.382,0.838,0.761c0.231,0.382,0.349,0.938,0.349,1.651c0,0.518-0.061,0.964-0.18,1.326
		c-0.118,0.358-0.284,0.647-0.493,0.859c-0.147,0.146-0.349,0.263-0.599,0.345c-0.25,0.083-0.608,0.125-1.061,0.125h-1.419V184.148z
		"/>
	<path d="M38.609,208.583c-0.473-0.28-1.009-0.422-1.593-0.422c-0.895,0-1.636,0.303-2.202,0.898s-0.853,1.428-0.853,2.475
		c0,0.555,0.122,1.088,0.363,1.585c0.242,0.499,0.604,0.898,1.077,1.188s1.014,0.436,1.611,0.436c0.552,0,1.073-0.133,1.548-0.393
		c0.477-0.261,0.851-0.651,1.112-1.161c0.259-0.506,0.391-1.086,0.391-1.727c0-0.631-0.125-1.203-0.372-1.7
		C39.446,209.261,39.082,208.864,38.609,208.583z M39.069,211.46c0,0.779-0.196,1.387-0.582,1.806
		c-0.391,0.424-0.875,0.63-1.479,0.63c-0.585,0-1.079-0.21-1.467-0.625c-0.389-0.415-0.585-0.994-0.585-1.722
		c0-0.91,0.205-1.566,0.609-1.951c0.405-0.386,0.895-0.581,1.457-0.581c0.394,0,0.755,0.101,1.073,0.301
		c0.316,0.199,0.56,0.483,0.725,0.847C38.985,210.531,39.069,210.967,39.069,211.46z"/>
	<polygon points="45.089,212.994 41.95,208.297 41.929,208.265 40.974,208.265 40.974,214.639 41.907,214.639 41.907,209.911
		45.046,214.607 45.067,214.639 46.023,214.639 46.023,208.265 45.089,208.265 	"/>
	<polygon points="82.568,214.639 83.538,214.639 83.538,211.81 86.462,211.81 86.462,210.937 83.538,210.937 83.538,209.139
		86.914,209.139 86.914,208.265 82.568,208.265 	"/>
	<polygon points="77.253,214.639 78.223,214.639 78.223,211.81 81.146,211.81 81.146,210.937 78.223,210.937 78.223,209.139
		81.599,209.139 81.599,208.265 77.253,208.265 	"/>
	<path d="M74.837,208.583c-0.472-0.28-1.008-0.422-1.592-0.422c-0.896,0-1.637,0.303-2.203,0.898
		c-0.565,0.596-0.853,1.428-0.853,2.475c0,0.556,0.123,1.089,0.364,1.585c0.241,0.498,0.604,0.897,1.076,1.188
		c0.472,0.289,1.014,0.436,1.61,0.436c0.553,0,1.073-0.133,1.549-0.393c0.477-0.261,0.851-0.651,1.112-1.161
		c0.259-0.507,0.391-1.087,0.391-1.727c0-0.632-0.125-1.204-0.372-1.7C75.673,209.26,75.309,208.863,74.837,208.583z M75.297,211.46
		c0,0.779-0.195,1.387-0.581,1.806c-0.392,0.424-0.875,0.63-1.479,0.63c-0.586,0-1.079-0.21-1.467-0.625
		c-0.389-0.414-0.585-0.994-0.585-1.722c0-0.911,0.204-1.567,0.608-1.951c0.404-0.386,0.895-0.581,1.456-0.581
		c0.394,0,0.755,0.101,1.073,0.301c0.316,0.199,0.561,0.484,0.725,0.847C75.213,210.531,75.297,210.967,75.297,211.46z"/>
</g>
</svg>
